<svg width="30" height="30" viewBox="0 0 30 30" fill="none" xmlns="http://www.w3.org/2000/svg">
<path d="M11.8425 6.51126C11.8425 6.51126 6.21625 12.1425 4.025 14.335C3.84125 14.5175 3.75 14.7575 3.75 14.9975C3.75 15.2375 3.84125 15.4775 4.025 15.66C6.215 17.8525 11.84 23.4813 11.84 23.4813C12.0213 23.6625 12.26 23.7525 12.4987 23.7525C12.7375 23.7513 12.9775 23.66 13.1613 23.4763C13.5275 23.11 13.5287 22.5188 13.1662 22.155L6.94625 15.935H25.3113C25.8288 15.935 26.2488 15.515 26.2488 14.9975C26.2488 14.48 25.8288 14.06 25.3113 14.06H6.94625L13.1687 7.83626C13.53 7.47501 13.5275 6.88501 13.1613 6.51876C12.9775 6.33501 12.7375 6.24251 12.4987 6.24251C12.26 6.24126 12.0237 6.33126 11.8425 6.51126Z" fill="#D22736"/>
</svg>
