<svg width="30" height="30" viewBox="0 0 30 30" fill="none" xmlns="http://www.w3.org/2000/svg">
<path d="M18.1575 23.4887C18.1575 23.4887 23.7837 17.8575 25.975 15.665C26.1587 15.4825 26.25 15.2425 26.25 15.0025C26.25 14.7625 26.1587 14.5225 25.975 14.34C23.785 12.1475 18.16 6.51875 18.16 6.51875C17.9787 6.3375 17.74 6.24749 17.5012 6.24749C17.2625 6.24874 17.0225 6.34 16.8387 6.52375C16.4725 6.89 16.4712 7.48124 16.8337 7.84499L23.0537 14.065L4.68875 14.065C4.17125 14.065 3.75125 14.485 3.75125 15.0025C3.75125 15.52 4.17125 15.94 4.68875 15.94L23.0537 15.94L16.8313 22.1637C16.47 22.525 16.4725 23.115 16.8387 23.4812C17.0225 23.665 17.2625 23.7575 17.5013 23.7575C17.74 23.7587 17.9763 23.6687 18.1575 23.4887Z" fill="white"/>
</svg>
